# xmcd CD database file generated by Grip 3.2.0
# 
# Track frame offsets:
#       150
#       20332
#       34087
#       57275
#       68690
#       84292
#       95222
#       105530
#       118850
#       135270
#       150955
#       164605
#       181605
#       203797
#       218580
#       237847
#       253252
#       269662
#       291545
#       310045
# 
# Disc length: 4316 seconds
# 
# Revision: 7
# Processed by: cddbd v1.5.1PL0 Copyright (c) Steve Scherf et al.
# Submitted via: Grip 3.2.0
# 
DISCID=1510da14
DTITLE=小島麻由美 - Songs For Gentlemen
DYEAR=2000
DGENRE=Other
TTITLE0=夏の光
TTITLE1=飾窓の少女
TTITLE2=はつ恋
TTITLE3=スキャットブルース
TTITLE4=セシルのブルース
TTITLE5=マイモンキーはブルー
TTITLE6=結婚相談所
TTITLE7=結婚行進曲
TTITLE8=パレード
TTITLE9=蜜蜂
TTITLE10=おしゃべり！おしゃべり！
TTITLE11=真夏の海
TTITLE12=ろくでなし
TTITLE13=あの娘の彼
TTITLE14=プレイガーリー
TTITLE15=セシルカットブルース
TTITLE16=夜明けのスキャット
TTITLE17=私の運命線
TTITLE18=恋の極楽特急
TTITLE19=皆殺しのブルース
EXTD=YEAR: 2000
EXTT0=
EXTT1=
EXTT2=
EXTT3=
EXTT4=
EXTT5=
EXTT6=
EXTT7=
EXTT8=
EXTT9=
EXTT10=
EXTT11=
EXTT12=
EXTT13=
EXTT14=
EXTT15=
EXTT16=
EXTT17=
EXTT18=
EXTT19=
PLAYORDER=
